<svg id="ecGF1ftvP9A1" xmlns="http://www.w3.org/2000/svg" xmlns:xlink="http://www.w3.org/1999/xlink" viewBox="0 0 320 320" shape-rendering="geometricPrecision" text-rendering="geometricPrecision"><defs><linearGradient id="ecGF1ftvP9A3-fill" x1="0" y1="0.5" x2="1.384622" y2="0.7073" spreadMethod="pad" gradientUnits="objectBoundingBox" gradientTransform="matrix(1 0 0 1 0 0)"><stop id="ecGF1ftvP9A3-fill-0" offset="0%" stop-color="rgb(165,160,148)"/><stop id="ecGF1ftvP9A3-fill-1" offset="100%" stop-color="rgb(216,210,194)"/></linearGradient><linearGradient id="ecGF1ftvP9A17-fill" x1="0" y1="0.5" x2="1" y2="0.750968" spreadMethod="pad" gradientUnits="objectBoundingBox" gradientTransform="matrix(1 0 0 1 0 0)"><stop id="ecGF1ftvP9A17-fill-0" offset="0%" stop-color="rgb(165,160,148)"/><stop id="ecGF1ftvP9A17-fill-1" offset="100%" stop-color="rgb(216,210,194)"/></linearGradient></defs><ellipse id="ecGF1ftvP9A2" rx="131.656" ry="130.962" transform="matrix(0.917701 0 0 0.901825 163.417204 141.253331)" fill="rgb(216,210,194)" stroke="none" stroke-width="0" stroke-miterlimit="1"/><ellipse id="ecGF1ftvP9A3" rx="22.4495" ry="20.9936" transform="matrix(1 0 0 1 222.007204 107.818331)" fill="url(#ecGF1ftvP9A3-fill)" stroke="none" stroke-width="0" stroke-miterlimit="1"/><path id="ecGF1ftvP9A4" d="M132.212932,404.367602C181.951205,402.708976,251.430203,365.858875,253.033722,286.262517C247.504873,196.847756,180.539829,170.749028,133.881732,169.392228C221.289085,237.625909,203.616975,351.975992,132.212932,404.367602" transform="matrix(-0.978563 -0.20595 -0.210898 1.00207 351.618204 -117.630669)" fill="rgb(165,160,148)" stroke="none" stroke-width="1.28" stroke-miterlimit="1"/><path id="ecGF1ftvP9A5" d="M299.489615,300.306743L357.727826,300.306743C361.060364,272.264775,378.309329,255.701793,412.121372,247.540266Q412.121372,247.540266,418.473784,209.548618L402.371992,179.846419L424.297742,89.4822L346.401067,149.356369L304.288248,149.356369L227.208513,89.4822L249.134263,179.846419L233.032471,209.548618Q239.384883,247.540266,239.384883,247.540266C273.196926,255.701793,290.445891,272.264775,293.778429,300.306743L352.01664,300.306743" transform="matrix(-1 0 0 1 489.170204 -9.998666)" fill="rgb(46,46,46)" stroke="rgb(7,9,12)" stroke-width="3" stroke-miterlimit="1"/><path id="ecGF1ftvP9A6" d="" transform="matrix(1 0 0 1 0.000005 0.000002)" fill="none" stroke="rgb(63,87,135)" stroke-width="1.28" stroke-miterlimit="1"/><path id="ecGF1ftvP9A7" d="" transform="matrix(-1 0 0 1 636.084 0.000002)" fill="none" stroke="rgb(63,87,135)" stroke-width="1.28" stroke-miterlimit="1"/><path id="ecGF1ftvP9A8" d="M324.702669,288.969068L299.48962,258.711842L348.400913,259.199861L324.702669,288.969068Z" transform="matrix(0.861004 0 0 0.799471 -115.092396 45.241431)" fill="rgb(255,255,255)" stroke="rgb(0,0,0)" stroke-width="1.28" stroke-miterlimit="1"/><path id="ecGF1ftvP9A9" d="M309.563367,209.54862Q269.661796,194.894474,269.661796,194.894474Q272.294375,205.506986,278.510415,209.54862Q284.726454,213.590254,309.563367,209.54862Z" transform="matrix(1 0 0 1 -162.335796 -9.998669)" fill="rgb(248,21,21)" stroke="rgb(0,0,0)" stroke-width="1.28" stroke-miterlimit="1"/><path id="ecGF1ftvP9A10" d="M309.563367,209.54862Q269.661796,194.894474,269.661796,194.894474Q268.094375,205.506982,274.310415,209.548616Q280.526454,213.59025,309.563367,209.54862Z" transform="matrix(-1 0 0 1 489.170204 -9.998665)" fill="rgb(248,21,21)" stroke="rgb(0,0,0)" stroke-width="1.28" stroke-miterlimit="1"/><polygon id="ecGF1ftvP9A11" points="0,-6.838573 2.009806,-2.766261 6.503869,-2.113235 3.251935,1.056618 4.019612,5.532521 0,3.419286 -4.019612,5.532521 -3.251935,1.056618 -6.503869,-2.113235 -2.009806,-2.766261 0,-6.838573" transform="matrix(0.829236 0.558898 -0.558898 0.829236 94.626204 23.001531)" fill="rgb(210,219,237)" stroke="none" stroke-width="0" stroke-miterlimit="1"/><polygon id="ecGF1ftvP9A12" points="0,-14.686793 4.31634,-5.940933 13.96797,-4.538469 6.983985,2.269234 8.63268,11.881865 0,7.343397 -8.63268,11.881865 -6.983985,2.269234 -13.96797,-4.538469 -4.31634,-5.940933 0,-14.686793" transform="matrix(0.639656 0.768661 -0.768661 0.639656 292.166204 244.805331)" fill="rgb(210,219,237)" stroke="none" stroke-width="0" stroke-miterlimit="1"/><polygon id="ecGF1ftvP9A13" points="0,-13.138267 3.86124,-5.314541 12.495235,-4.059948 6.247617,2.029974 7.72248,10.629082 0,6.569134 -7.72248,10.629082 -6.247617,2.029974 -12.495235,-4.059948 -3.86124,-5.314541 0,-13.138267" transform="matrix(0.748481 0.663157 -0.663157 0.748481 16.401204 124.940331)" fill="rgb(210,219,237)" stroke="none" stroke-width="0" stroke-miterlimit="1"/><polygon id="ecGF1ftvP9A14" points="0,-6.200253 1.822209,-2.508055 5.896791,-1.915984 2.948396,0.957992 3.644417,5.01611 0,3.100126 -3.644417,5.01611 -2.948396,0.957992 -5.896791,-1.915984 -1.822209,-2.508055 0,-6.200253" transform="matrix(0.606165 0.795339 -0.795339 0.606165 275.864204 52.716431)" fill="rgb(210,219,237)" stroke="none" stroke-width="0" stroke-miterlimit="1"/><path id="ecGF1ftvP9A15" d="" fill="none" stroke="rgb(63,87,135)" stroke-width="1.28" stroke-miterlimit="1"/><path id="ecGF1ftvP9A16" d="" fill="none" stroke="rgb(63,87,135)" stroke-width="1.28" stroke-miterlimit="1"/><ellipse id="ecGF1ftvP9A17" rx="10.9714" ry="9.99517" transform="matrix(1 0 0 1 142.769204 55.974731)" fill="url(#ecGF1ftvP9A17-fill)" stroke="rgb(216,210,194)" stroke-width="3" stroke-miterlimit="1"/><ellipse id="ecGF1ftvP9A18" rx="6.7717" ry="6.15087" transform="matrix(1 0 0 1 261.726204 178.745331)" fill="rgb(165,160,148)" stroke="none" stroke-width="0" stroke-miterlimit="1"/><ellipse id="ecGF1ftvP9A19" rx="2.26058" ry="1.85576" transform="matrix(1 0 0 1 129.537204 116.522331)" fill="rgb(165,160,148)" stroke="none" stroke-width="0" stroke-miterlimit="1"/><path id="ecGF1ftvP9A20" d="" fill="none" stroke="rgb(63,87,135)" stroke-width="1.28" stroke-miterlimit="1"/><path id="ecGF1ftvP9A21" d="" fill="none" stroke="rgb(63,87,135)" stroke-width="1.28"/><path id="ecGF1ftvP9A22" d="" fill="none" stroke="rgb(63,87,135)" stroke-width="1.28"/></svg>